<?xml version="1.0" standalone="no"?>
<!DOCTYPE svg PUBLIC "-//W3C//DTD SVG 20010904//EN"
 "http://www.w3.org/TR/2001/REC-SVG-20010904/DTD/svg10.dtd">
<svg version="1.0" xmlns="http://www.w3.org/2000/svg"
 width="564.000000pt" height="564.000000pt" viewBox="0 0 564.000000 564.000000"
 preserveAspectRatio="xMidYMid meet">
<metadata>
Created by potrace 1.11, written by Peter Selinger 2001-2013
</metadata>
<g transform="translate(0.000000,564.000000) scale(0.100000,-0.100000)"
fill="#000000" stroke="none">
<path d="M0 2820 l0 -2820 2820 0 2820 0 0 2820 0 2820 -2820 0 -2820 0 0
-2820z m2550 1896 l0 -104 -87 -12 c-229 -31 -344 -69 -397 -132 -67 -77 -66
-70 -66 -906 l0 -752 30 0 c24 0 55 22 152 107 429 374 757 706 1015 1027 191
239 270 376 280 487 5 53 3 60 -21 82 -32 30 -160 73 -241 81 -33 4 -84 9
-112 12 l-53 5 0 105 0 104 780 0 780 0 0 -103 0 -104 -127 -17 c-230 -32
-417 -102 -514 -193 -29 -26 -200 -214 -382 -418 -390 -438 -656 -723 -819
-875 -65 -61 -118 -115 -118 -119 0 -4 37 -49 83 -101 302 -344 678 -801 1072
-1300 248 -314 395 -467 540 -563 55 -36 123 -75 150 -87 59 -26 193 -56 288
-66 l67 -7 0 -103 0 -104 -583 0 -584 0 -118 178 c-340 510 -824 1121 -1324
1669 -159 175 -168 183 -203 183 l-38 0 0 -758 c0 -846 -1 -827 67 -903 20
-22 55 -51 77 -64 49 -28 243 -80 339 -90 l67 -7 0 -104 0 -104 -860 0 -860 0
0 105 c0 102 1 105 23 105 41 0 211 19 272 30 127 24 211 99 234 213 8 36 11
526 9 1632 l-3 1580 -28 56 c-20 42 -41 66 -80 93 -79 54 -229 104 -389 131
l-38 6 0 104 0 105 860 0 860 0 0 -104z"/>
</g>
</svg>
